<svg xmlns="http://www.w3.org/2000/svg" viewBox="0 0 600 204"><g fill="#5596C0"><path d="M36.5 16.6v106.2c.2 16-5.1 16.5-6.8 16.7h-.4c-3.9 0-6.3-7.6-7.6-11.7-.1-.3-.2-.7-.3-1l-1.7-5.5L0 144.4l.4 1.6c4.7 17.6 14.4 27.7 26.7 27.7 1.4 0 2.8-.1 4.2-.4 10.8-1.9 19.1-8.9 24.2-20.4 5-11.2 5.7-24.2 5.7-30.9V20.5l-24.7-3.9zM129.8 78.9c-1.8-1.1-2.7-1.7-4.6-2.8-6.7-4-9.6-8.1-9.7-13.3 0-2.4.8-4.7 2.2-6.1.9-.9 1.9-1.2 3.1-1.2 4.6.3 7.4 5.3 8.9 9.4l1.6 4.3 19.7-16-.9-2.3c-5.8-14.2-16-22.9-28.7-24.3-1.1-.1-2.1-.2-3.2-.2-17.9 0-27.2 18-27.2 35.7 0 19.2 8.1 34 23.6 43 1.8 1.1 2.8 1.6 4.6 2.7 6.4 3.6 11.7 7.1 11.7 13.5-.1 5.3-4.1 9.6-9.4 10h-.9c-3.9 0-9.5-2.2-13.9-12.7l-1.8-4.2L85 132.6l.7 2c2.6 7.6 6.8 13.9 12.2 18.5 5.9 5 13 7.6 20.6 7.6 1.3 0 2.7-.1 4-.2 9.9-1.1 18.4-5.9 24.5-13.6 5.6-7.2 8.7-16.6 8.8-26.5-.1-17.6-8.3-30.8-26-41.5zM252.6 107.9l-1.9 3.5c-3.5 6.4-9.8 14.1-20.2 14.4h-.6c-7.2 0-13-3.5-17.3-10.3-3.7-5.9-5.8-13.9-5.8-21.9 0-8 2.1-15.9 5.8-21.8 4.2-6.7 10-10.1 17.2-10.1h.6c7.9.2 14.9 4.9 18.8 12.6l1.9 3.6 19.3-16-1.3-2.4c-8.1-15-21.7-23.7-38.5-24.4h-2c-14.4 0-26.7 6.6-35.5 19.2-7.5 10.7-11.8 24.9-11.8 39.2 0 14.3 4.3 28.6 11.8 39.3 8.8 12.6 21.1 19.3 35.6 19.3h2c16.9-.7 31.5-10.3 40-26.1l1.3-2.4-19.4-15.7zM345.8 35.9h-1.4c-30.9.9-49.4 30-49.4 57.6 0 14.1 4.8 28.3 13.1 38.9 9.2 11.7 22.1 18.4 36.3 18.8h1.4c14.3 0 27-6.6 35.9-18.6 7.8-10.6 12.3-24.8 12.3-39s-4.5-28.4-12.3-39c-8.9-12-21.7-18.7-35.9-18.7zm22.8 57.7c0 7.9-2.2 15.8-6 21.6-3 4.6-8.5 10-17.5 10h-.4c-15.7-.3-24.1-16.5-24.1-31.6 0-15.1 8.5-31.3 24.1-31.6h.4c9 0 14.5 5.4 17.5 10 3.8 5.8 6 13.7 6 21.6zM480.1 28s.1 61.5.2 64.5c-1.2-1.8-3.7-5.3-3.7-5.3-13.9-17.9-46.1-55.5-46.1-55.5l-6.5.5v121.7l23.7 2s-.1-58.5-.3-61.2c1.2 1.7 49.3 67.5 49.3 67.5l7 .9V25.2L480.1 28zM536.6 20.8v145.6l24.8 3.8v-44.7c10.6.7 35.2 2.4 35.2 2.4V92.2s-24.5-.1-35.2-.1v-42c11.9-1.2 38.7-4.3 38.7-4.3V10.2l-63.5 10.6z"/></g><g fill="#162636"><path d="M61.3 20.5v101.7c0 6.7-.7 19.7-5.7 30.9-.7 2.8-1.7 4.3-2.7 5.2-5.1 8.3-12.4 13.5-21.4 15.1-1.4.3-2.9.4-4.2.4-7.4 0-13.8-3.6-18.8-10.4 0 0 14.6 23.4 31.6 29.1 2 .7 4.1 1.1 6.3 1.2h1c1.4 0 2.8-.1 4.2-.4 10.8-1.9 19.1-8.9 24.2-20.4 5-11.2 5.7-24.2 5.7-30.9V40.5l-20.2-20z"/><path d="M21.8 127.9c1.3 4.1 3.6 11.7 7.6 11.7h.4c1-.1 3.1-.3 4.7-3.5l-14.7-14.7 1.7 5.5c.1.3.2.6.3 1zM100.9 93.6zM150.1 51l.9 2.3-19.7 16-1.6-4.3c-1.5-4.1-4.3-9.1-8.9-9.4-1.2-.1-2.3.3-3.1 1.2-1.3 1.3-2.2 3.7-2.2 6.1 0 5.2 3 9.3 9.7 13.3 1.8 1.1 2.7 1.7 4.6 2.8.3.2.6.4.9.5-.1-.5-.1-1.1-.1-1.7 0-2.4.8-4.7 2.2-6.1.2-.2.4-.3.5-.5l13.1 13.1 19.7-16-.9-2.3c-2.2-5.4-5-10-8.3-13.7-2.5-3.5-8.6-9-13.9-13.7 2.7 3.5 5.2 7.7 7.1 12.4zM120.5 131.4h.2l-.8-1.9-15-15 1.8 4.2c4.4 10.5 9.9 12.7 13.8 12.7zM119.2 107.9c-1.9-1.1-2.8-1.6-4.6-2.7-4-2.3-7.5-5-10.5-8.1 4.6 5.1 13.1 14.4 18.2 18 2.2 1.9 4.6 3.6 7.3 5.1.5.3.9.5 1.3.8-.2-6.1-5.4-9.5-11.7-13.1z"/><path d="M163.2 110.2c-.1-.2-.3-.4-.4-.6l-.1-.1c-5.6-7.8-13.5-15.3-20-20.8 8.8 8.8 13 19.1 13 31.6 0 9.9-3.1 19.3-8.8 26.5-6.1 7.8-14.6 12.5-24.5 13.6-1.3.2-2.7.2-4 .2-7.6 0-14.7-2.6-20.6-7.6-2.5-2.1-4.8-4.7-6.7-7.6 0 0 9.7 15.2 23.6 24 5.2 3.8 11.2 5.9 17.6 6.1h1.1c1.3 0 2.7-.1 4-.2 9.9-1.1 18.4-5.9 24.5-13.6 5.6-7.2 8.7-16.6 8.8-26.5 0-9.4-2.4-17.7-7.5-25z"/><g><path d="M269.2 59.6l1.3 2.4-19.3 16 10 10 19.3-16-1.3-2.4c-1.5-2.9-3.3-5.5-5.2-7.9-5.9-8.6-14.6-15.3-18.3-17.9 5.4 4 10 9.3 13.5 15.8zM221.8 124c-3.2-5.8-5-13.1-5-20.5 0-8 2.1-15.9 5.8-21.8 4.2-6.7 10-10.1 17.2-10.1h.6c3 .1 6 .8 8.6 2.2-4-7.4-10.9-12-18.6-12.2h-.6c-7.2 0-13 3.4-17.2 10.1-3.7 5.9-5.8 13.8-5.8 21.8s2.1 16 5.8 21.9c2.6 4.1 5.6 7 9.2 8.6zM272.1 123.6l-1.3 2.4c-8.5 15.9-23.1 25.4-40 26.1h-2c-14.4 0-26.7-6.7-35.6-19.3-1-1.4-1.9-2.8-2.7-4.3 0 0 17.2 31 42.1 33.1 2 .3 4.1.4 6.2.4h2c16.9-.7 31.5-10.3 40-26.1l1.3-2.4-10-9.9zM253.9 42.5z"/></g><g><path d="M381.7 132.6c-8.9 12-21.7 18.6-35.9 18.6h-1.4c-14.2-.4-27.1-7.1-36.3-18.8-8.3-10.6-13.1-24.8-13.1-38.9 0-21.2 10.9-43.2 29.8-52.8 0 0-15.6 6.4-28.9 26.8-1.6 2.3-3 4.8-4.3 7.3-4.4 8.8-6.7 18.8-6.7 28.6 0 14.1 4.8 28.3 13.1 38.9 9.2 11.7 22.1 18.4 36.3 18.8h1.4c3 0 5.9-.3 8.7-.9 1.2-.2 2.3-.5 3.5-.8.1 0 .2-.1.3-.1.1 0 .2-.1.4-.1 16.2-4.7 26.6-15.7 35.6-30.5-.8 1.4-1.6 2.7-2.5 3.9z"/><path d="M362.5 115.2c3.8-5.8 6-13.7 6-21.6 0-7.9-2.2-15.8-6-21.6-3-4.6-8.5-10-17.5-10h-.4c-8.7.2-15.2 5.2-19.2 12.3 2.7-1.4 5.8-2.2 9.2-2.3h.4c9 0 14.5 5.4 17.5 10 3.8 5.8 6 13.7 6 21.6 0 7.1-1.8 14.1-4.9 19.7 4.2-2 7-5.2 8.9-8.1zM384.9 127.8c.2-.3.3-.5.5-.8-.2.3-.4.5-.5.8z"/></g><g><path d="M476.6 87.2s2.5 3.5 3.7 5.3c-.1-3-.2-64.5-.2-64.5l-15 15s0 14.6.1 29.9c4.3 5.3 8.3 10.3 11.4 14.3zM424.1 32.2l-15 15v121.7l23.7 2 15-15-23.7-2zM447.5 94.7c.1 1.5.2 19.7.2 35.9 14.5 19.8 34.1 46.6 34.1 46.6l7 .9 15-15-7-.9s-48.1-65.8-49.3-67.5z"/></g><g><path d="M596.5 127.9s-24.6-1.7-35.2-2.4v21.3c8.2.6 15.2 1 15.2 1l20-19.9zM561.3 50.1v17.8l18.7-2.1 20-20s-26.8 3-38.7 4.3zM536.6 20.8l-20 20v145.6l24.7 3.8 20-20-24.7-3.8z"/></g></g></svg>